<?xml version="1.0" encoding="utf-8"?>
<svg version="1.1" xmlns:xlink="http://www.w3.org/1999/xlink" width="16px" height="16px" viewBox="13 15  16 16" xmlns="http://www.w3.org/2000/svg">
  <path d="M 21 15  C 25.48 15  29 18.52  29 23  C 29 27.48  25.48 31  21 31  C 16.52 31  13 27.48  13 23  C 13 18.52  16.52 15  21 15  Z " fill-rule="nonzero" fill="#f0f0f0" stroke="none" />
  <path d="M 21 15.5  C 25.2 15.5  28.5 18.8  28.5 23  C 28.5 27.2  25.2 30.5  21 30.5  C 16.8 30.5  13.5 27.2  13.5 23  C 13.5 18.8  16.8 15.5  21 15.5  Z " stroke-width="1" stroke="#02a7f0" fill="none" />
  <path d="M 21 27  C 18.76 27  17 25.24  17 23  C 17 20.76  18.76 19  21 19  C 23.24 19  25 20.76  25 23  C 25 25.24  23.24 27  21 27  " fill-rule="nonzero" fill="#02a7f0" stroke="none" />
</svg>