<?xml version="1.0" encoding="utf-8"?>
<svg version="1.1" xmlns:xlink="http://www.w3.org/1999/xlink" width="66px" height="22px" xmlns="http://www.w3.org/2000/svg">
  <g transform="matrix(1 0 0 1 -725 -328 )">
    <path d="M 726 339  A 10 10 0 0 1 736 329 L 780 329  A 10 10 0 0 1 790 339 A 10 10 0 0 1 780 349 L 736 349  A 10 10 0 0 1 726 339 Z " fill-rule="nonzero" fill="#ffffff" stroke="none" />
    <path d="M 725.5 339  A 10.5 10.5 0 0 1 736 328.5 L 780 328.5  A 10.5 10.5 0 0 1 790.5 339 A 10.5 10.5 0 0 1 780 349.5 L 736 349.5  A 10.5 10.5 0 0 1 725.5 339 Z " stroke-width="1" stroke="#81d3f8" fill="none" stroke-opacity="0.792156862745098" />
  </g>
</svg>